# xmcd CD database file
# Copyright (C) 1995-1998 Ti Kan
#
# Track frame offsets:
#	150
#	18088
#	43728
#	62178
#	97495
#	118368
#	138592
#	157023
#	173179
#	190008
#	213824
#	232124
#	246127
#	261020
#	281862
#
# Disc length: 3997 seconds
#
# Revision: 1
# Processed by: cddbd v1.4b42PL0 Copyright (c) Steve Scherf et al.
# Submitted via: CDex 1.30Release
#
DISCID=e60f9b0f
DTITLE=Ben Harper - Burn to Shine
DYEAR=1900
DGENRE=Blues
TTITLE0=Alone
TTITLE1=The Woman in You
TTITLE2=Less
TTITLE3=Two Hands of a Prayer
TTITLE4=Please Bleed
TTITLE5=Suzie Blue
TTITLE6=Steal My Kisses
TTITLE7=Burn to Shine
TTITLE8=Show Me a Little Shame
TTITLE9=Forgiven
TTITLE10=Beloved One
TTITLE11=In the Lord's Arms
TTITLE12=Beloved One (Live)
TTITLE13=Please Bleed (Live)
TTITLE14=In the Lord's Arms (Live)
EXTD=ID3G:   0
EXTT0=
EXTT1=
EXTT2=
EXTT3=
EXTT4=
EXTT5=
EXTT6=
EXTT7=
EXTT8=
EXTT9=
EXTT10=
EXTT11=
EXTT12=
EXTT13=
EXTT14=
PLAYORDER=
